<svg xmlns="http://www.w3.org/2000/svg" xmlns:xlink="http://www.w3.org/1999/xlink" width="500" zoomAndPan="magnify" viewBox="0 0 375 374.999991" height="500" preserveAspectRatio="xMidYMid meet" version="1.0"><defs><clipPath id="4a452dfd78"><path d="M 32 31 L 366 31 L 366 347.921875 L 32 347.921875 Z M 32 31 " clip-rule="nonzero"/></clipPath></defs><g clip-path="url(#4a452dfd78)"><path fill="#ffffff" d="M 357.726562 185.445312 L 262.730469 185.445312 C 252.371094 185.445312 252.371094 169.808594 262.730469 169.808594 L 357.726562 169.808594 C 368.085938 169.808594 368.085938 185.445312 357.726562 185.445312 Z M 71.367188 291.777344 C 60.8125 291.777344 51.039062 286.109375 45.761719 277.117188 L 36.183594 260.113281 C 27.972656 246.039062 32.859375 228.054688 46.933594 219.847656 L 65.113281 209.292969 C 101.078125 180.753906 118.671875 143.613281 137.238281 98.265625 C 137.238281 98.265625 130.984375 79.304688 148.1875 69.53125 C 159.71875 62.886719 174.574219 66.796875 181.21875 78.328125 L 275.824219 242.324219 C 285.207031 258.355469 273.480469 278.683594 254.910156 278.683594 C 247.875 278.683594 241.226562 275.554688 236.730469 270.277344 C 215.425781 267.539062 194.511719 265 173.792969 265 C 161.671875 265 150.335938 265.78125 139.585938 267.539062 C 141.929688 279.464844 137.042969 291.972656 126.683594 299.011719 L 135.871094 315.039062 C 144.277344 329.699219 133.527344 348.074219 116.519531 348.074219 C 108.703125 348.074219 101.46875 343.773438 97.558594 337.128906 Z M 79.773438 217.695312 L 104.402344 260.503906 C 144.667969 246.234375 183.566406 247.796875 226.175781 253.273438 L 147.011719 115.859375 C 129.8125 156.125 112.21875 189.941406 79.773438 217.695312 Z M 66.675781 226.492188 L 54.753906 233.335938 C 48.105469 237.242188 45.761719 245.84375 49.671875 252.292969 L 59.445312 269.300781 C 63.15625 275.945312 71.757812 278.097656 78.402344 274.382812 L 90.328125 267.34375 Z M 247.289062 258.355469 C 249.046875 260.894531 250.804688 263.046875 254.910156 263.046875 C 261.558594 263.046875 265.660156 255.8125 262.339844 250.144531 L 167.535156 86.148438 C 162.0625 76.570312 147.011719 84.777344 152.878906 94.746094 Z M 124.144531 270.863281 C 120.234375 271.839844 116.324219 273.015625 112.414062 274.382812 L 118.867188 285.523438 C 123.167969 281.808594 125.121094 276.335938 124.144531 270.863281 Z M 86.808594 287.476562 L 111.046875 329.308594 C 115.152344 336.34375 126.488281 330.089844 122.382812 322.859375 L 98.144531 280.832031 Z M 230.671875 129.933594 C 224.808594 129.933594 220.898438 123.480469 224.027344 118.203125 L 271.527344 35.914062 C 276.609375 26.921875 290.09375 34.738281 285.011719 43.730469 L 237.515625 126.023438 C 235.949219 128.5625 233.410156 129.933594 230.671875 129.933594 Z M 241.226562 160.816406 C 233.214844 160.816406 230.476562 150.261719 237.320312 146.351562 L 319.609375 98.65625 C 328.601562 93.574219 336.421875 107.0625 327.429688 112.339844 L 245.136719 159.839844 C 243.964844 160.425781 242.597656 160.816406 241.226562 160.816406 Z M 241.226562 160.816406 " fill-opacity="1" fill-rule="evenodd"/></g></svg>