<svg xmlns="http://www.w3.org/2000/svg" xmlns:xlink="http://www.w3.org/1999/xlink" width="500" zoomAndPan="magnify" viewBox="0 0 375 374.999991" height="500" preserveAspectRatio="xMidYMid meet" version="1.0"><defs><clipPath id="ff6c3d34b3"><path d="M 32.046875 45.261719 L 343 45.261719 L 343 329.511719 L 32.046875 329.511719 Z M 32.046875 45.261719 " clip-rule="nonzero"/></clipPath></defs><g clip-path="url(#ff6c3d34b3)"><path fill="#ffffff" d="M 234.671875 45.230469 L 307.828125 45.230469 C 317.492188 45.230469 326.265625 49.167969 332.617188 55.535156 C 338.972656 61.886719 342.921875 70.675781 342.921875 80.324219 L 342.921875 175.242188 C 342.921875 184.902344 338.988281 193.675781 332.617188 200.03125 C 326.265625 206.382812 317.476562 210.332031 307.828125 210.332031 L 234.671875 210.332031 C 225.007812 210.332031 216.234375 206.382812 209.878906 200.03125 C 203.527344 193.675781 199.578125 184.902344 199.578125 175.242188 L 199.578125 80.324219 C 199.578125 70.660156 203.527344 61.886719 209.878906 55.535156 C 216.234375 49.179688 225.007812 45.230469 234.671875 45.230469 Z M 67.207031 125.9375 L 140.367188 125.9375 C 146.003906 125.9375 151.136719 123.621094 154.851562 119.90625 C 158.566406 116.175781 160.886719 111.058594 160.886719 105.417969 L 160.886719 80.324219 C 160.886719 74.683594 158.566406 69.554688 154.851562 65.839844 C 151.121094 62.105469 145.992188 59.804688 140.367188 59.804688 L 67.207031 59.804688 C 61.566406 59.804688 56.4375 62.121094 52.722656 65.839844 C 48.992188 69.570312 46.6875 74.683594 46.6875 80.324219 L 46.6875 105.417969 C 46.6875 111.058594 49.003906 116.1875 52.722656 119.90625 C 56.4375 123.621094 61.566406 125.9375 67.207031 125.9375 Z M 140.367188 140.511719 L 67.207031 140.511719 C 57.546875 140.511719 48.773438 136.5625 42.417969 130.207031 C 36.0625 123.855469 32.113281 115.066406 32.113281 105.417969 L 32.113281 80.324219 C 32.113281 70.660156 36.050781 61.886719 42.417969 55.535156 C 48.773438 49.179688 57.558594 45.230469 67.207031 45.230469 L 140.367188 45.230469 C 150.027344 45.230469 158.800781 49.179688 165.15625 55.535156 C 171.507812 61.886719 175.457031 70.675781 175.457031 80.324219 L 175.457031 105.417969 C 175.457031 115.082031 171.507812 123.855469 165.15625 130.207031 C 158.800781 136.5625 150.011719 140.511719 140.367188 140.511719 Z M 67.207031 315.101562 L 140.367188 315.101562 C 146.003906 315.101562 151.136719 312.785156 154.851562 309.066406 C 158.582031 305.351562 160.886719 300.222656 160.886719 294.582031 L 160.886719 199.664062 C 160.886719 194.027344 158.582031 188.894531 154.851562 185.179688 C 151.121094 181.449219 146.003906 179.144531 140.367188 179.144531 L 67.207031 179.144531 C 61.566406 179.144531 56.4375 181.464844 52.722656 185.179688 C 48.992188 188.910156 46.6875 194.027344 46.6875 199.664062 L 46.6875 294.582031 C 46.6875 300.222656 49.003906 305.351562 52.722656 309.066406 C 56.4375 312.796875 61.566406 315.101562 67.207031 315.101562 Z M 140.367188 329.675781 L 67.207031 329.675781 C 57.546875 329.675781 48.773438 325.726562 42.417969 319.371094 C 36.0625 313.015625 32.113281 304.230469 32.113281 294.582031 L 32.113281 199.664062 C 32.113281 190.003906 36.050781 181.230469 42.417969 174.875 C 48.773438 168.523438 57.558594 164.574219 67.207031 164.574219 L 140.367188 164.574219 C 150.027344 164.574219 158.800781 168.523438 165.15625 174.875 C 171.507812 181.230469 175.457031 190.003906 175.457031 199.664062 L 175.457031 294.582031 C 175.457031 304.246094 171.507812 313.015625 165.15625 319.371094 C 158.800781 325.726562 150.027344 329.675781 140.367188 329.675781 Z M 234.683594 234.394531 L 307.84375 234.394531 C 317.503906 234.394531 326.277344 238.34375 332.632812 244.699219 C 338.988281 251.050781 342.9375 259.839844 342.9375 269.488281 L 342.9375 294.582031 C 342.9375 304.246094 338.988281 313.015625 332.632812 319.371094 C 326.277344 325.726562 317.492188 329.675781 307.84375 329.675781 L 234.683594 329.675781 C 225.023438 329.675781 216.25 325.726562 209.894531 319.371094 C 203.542969 313.003906 199.59375 304.230469 199.59375 294.582031 L 199.59375 269.488281 C 199.59375 259.824219 203.542969 251.050781 209.894531 244.699219 C 216.25 238.34375 225.023438 234.394531 234.683594 234.394531 Z M 307.84375 248.96875 L 234.683594 248.96875 C 229.042969 248.96875 223.914062 251.285156 220.199219 255 C 216.46875 258.730469 214.164062 263.847656 214.164062 269.488281 L 214.164062 294.582031 C 214.164062 300.222656 216.484375 305.351562 220.199219 309.066406 C 223.929688 312.796875 229.042969 315.101562 234.683594 315.101562 L 307.84375 315.101562 C 313.484375 315.101562 318.613281 312.785156 322.328125 309.066406 C 326.058594 305.335938 328.363281 300.222656 328.363281 294.582031 L 328.363281 269.488281 C 328.363281 263.847656 326.046875 258.71875 322.328125 255 C 318.597656 251.285156 313.484375 248.96875 307.84375 248.96875 Z M 307.84375 59.804688 L 234.683594 59.804688 C 229.042969 59.804688 223.914062 62.121094 220.199219 65.839844 C 216.46875 69.554688 214.164062 74.683594 214.164062 80.324219 L 214.164062 175.242188 C 214.164062 180.878906 216.484375 186.011719 220.199219 189.726562 C 223.929688 193.457031 229.042969 195.761719 234.683594 195.761719 L 307.84375 195.761719 C 313.484375 195.761719 318.613281 193.441406 322.328125 189.726562 C 326.058594 185.996094 328.363281 180.878906 328.363281 175.242188 L 328.363281 80.324219 C 328.363281 74.683594 326.046875 69.554688 322.328125 65.839844 C 318.597656 62.105469 313.484375 59.804688 307.84375 59.804688 Z M 307.84375 59.804688 " fill-opacity="1" fill-rule="nonzero"/></g></svg>