<svg xmlns="http://www.w3.org/2000/svg" xmlns:xlink="http://www.w3.org/1999/xlink" width="500" zoomAndPan="magnify" viewBox="0 0 375 374.999991" height="500" preserveAspectRatio="xMidYMid meet" version="1.0"><defs><clipPath id="7d62b05cad"><path d="M 39.066406 251 L 92 251 L 92 337.308594 L 39.066406 337.308594 Z M 39.066406 251 " clip-rule="nonzero"/></clipPath><clipPath id="982d1d681c"><path d="M 120 239 L 174 239 L 174 337.308594 L 120 337.308594 Z M 120 239 " clip-rule="nonzero"/></clipPath><clipPath id="544a2a32c8"><path d="M 202 210 L 257 210 L 257 337.308594 L 202 337.308594 Z M 202 210 " clip-rule="nonzero"/></clipPath><clipPath id="26c94ae786"><path d="M 285 160 L 337.566406 160 L 337.566406 337.308594 L 285 337.308594 Z M 285 160 " clip-rule="nonzero"/></clipPath><clipPath id="2c84f639bb"><path d="M 39.066406 23.058594 L 337.566406 23.058594 L 337.566406 223 L 39.066406 223 Z M 39.066406 23.058594 " clip-rule="nonzero"/></clipPath></defs><g clip-path="url(#7d62b05cad)"><path fill="#ffffff" d="M 39.085938 251.644531 L 91.671875 251.644531 L 91.671875 337.496094 L 39.085938 337.496094 Z M 39.085938 251.644531 " fill-opacity="1" fill-rule="nonzero"/></g><g clip-path="url(#982d1d681c)"><path fill="#ffffff" d="M 120.640625 337.496094 L 120.640625 239.835938 L 173.671875 239.835938 L 173.671875 337.496094 Z M 120.640625 337.496094 " fill-opacity="1" fill-rule="nonzero"/></g><g clip-path="url(#544a2a32c8)"><path fill="#ffffff" d="M 202.207031 210.859375 L 256.941406 210.859375 L 256.941406 337.496094 L 202.207031 337.496094 Z M 202.207031 210.859375 " fill-opacity="1" fill-rule="nonzero"/></g><g clip-path="url(#26c94ae786)"><path fill="#ffffff" d="M 285.910156 160.425781 L 337.429688 160.425781 L 337.429688 337.496094 L 285.910156 337.496094 Z M 285.910156 160.425781 " fill-opacity="1" fill-rule="nonzero"/></g><g clip-path="url(#2c84f639bb)"><path fill="#ffffff" d="M 39.085938 222.222656 C 39.085938 222.222656 178.597656 203.386719 274.109375 76.714844 L 242.984375 56.328125 L 337.449219 23.058594 L 337.449219 122.640625 L 311.6875 100.324219 C 311.6875 100.324219 194.691406 232.503906 39.085938 222.222656 Z M 39.085938 222.222656 " fill-opacity="1" fill-rule="nonzero"/></g></svg>