<svg xmlns="http://www.w3.org/2000/svg" xmlns:xlink="http://www.w3.org/1999/xlink" width="500" zoomAndPan="magnify" viewBox="0 0 375 374.999991" height="500" preserveAspectRatio="xMidYMid meet" version="1.0"><defs><clipPath id="c8f626d125"><path d="M 23.546875 103 L 264 103 L 264 343.503906 L 23.546875 343.503906 Z M 23.546875 103 " clip-rule="nonzero"/></clipPath></defs><path fill="#ffffff" d="M 182.640625 160.949219 C 184.59375 156.867188 182.867188 151.972656 178.785156 150.015625 C 167.761719 144.738281 155.933594 142.0625 143.628906 142.0625 C 132.625 142.0625 121.949219 144.21875 111.898438 148.472656 C 102.1875 152.578125 93.472656 158.453125 85.992188 165.9375 C 78.507812 173.417969 72.632812 182.136719 68.527344 191.84375 C 64.273438 201.898438 62.117188 212.574219 62.117188 223.574219 C 62.117188 234.574219 64.273438 245.25 68.527344 255.304688 C 72.632812 265.011719 78.507812 273.726562 85.992188 281.210938 C 93.472656 288.691406 102.191406 294.570312 111.898438 298.671875 C 121.949219 302.925781 132.625 305.082031 143.628906 305.082031 C 154.628906 305.082031 165.304688 302.925781 175.355469 298.671875 C 185.066406 294.566406 193.78125 288.691406 201.261719 281.210938 C 208.746094 273.726562 214.621094 265.007812 218.726562 255.304688 C 222.980469 245.25 225.136719 234.574219 225.136719 223.574219 C 225.136719 211.453125 222.539062 199.789062 217.414062 188.898438 C 215.488281 184.804688 210.605469 183.046875 206.507812 184.976562 C 202.414062 186.902344 200.65625 191.785156 202.585938 195.878906 C 206.671875 204.570312 208.746094 213.886719 208.746094 223.574219 C 208.746094 240.96875 201.972656 257.320312 189.671875 269.617188 C 177.375 281.917969 161.019531 288.691406 143.628906 288.691406 C 126.234375 288.691406 109.878906 281.917969 97.582031 269.617188 C 85.28125 257.320312 78.507812 240.96875 78.507812 223.574219 C 78.507812 206.179688 85.28125 189.824219 97.582031 177.527344 C 109.878906 165.226562 126.234375 158.453125 143.628906 158.453125 C 153.464844 158.453125 162.910156 160.589844 171.707031 164.800781 C 175.789062 166.753906 180.683594 165.03125 182.640625 160.949219 Z M 182.640625 160.949219 " fill-opacity="1" fill-rule="nonzero"/><g clip-path="url(#c8f626d125)"><path fill="#ffffff" d="M 234.0625 157.1875 C 230.230469 159.59375 229.078125 164.652344 231.484375 168.484375 C 241.839844 184.960938 247.3125 204.011719 247.3125 223.574219 C 247.3125 237.574219 244.570312 251.152344 239.167969 263.929688 C 233.945312 276.273438 226.46875 287.363281 216.945312 296.886719 C 207.417969 306.414062 196.328125 313.890625 183.984375 319.113281 C 171.207031 324.515625 157.628906 327.257812 143.628906 327.257812 C 129.628906 327.257812 116.050781 324.515625 103.273438 319.113281 C 90.925781 313.890625 79.835938 306.414062 70.3125 296.886719 C 60.789062 287.363281 53.308594 276.273438 48.089844 263.929688 C 42.683594 251.152344 39.941406 237.574219 39.941406 223.574219 C 39.941406 221.589844 40 219.585938 40.109375 217.617188 C 42.417969 176.832031 68.613281 141.105469 106.851562 126.597656 C 118.582031 122.144531 130.957031 119.886719 143.628906 119.886719 C 163.078125 119.886719 182.035156 125.300781 198.445312 135.546875 C 199.796875 136.390625 201.296875 136.789062 202.777344 136.789062 C 205.511719 136.789062 208.183594 135.421875 209.738281 132.933594 C 212.132812 129.09375 210.964844 124.039062 207.125 121.640625 C 188.109375 109.773438 166.148438 103.496094 143.628906 103.496094 C 128.960938 103.496094 114.632812 106.113281 101.035156 111.273438 C 56.757812 128.074219 26.417969 169.453125 23.746094 216.691406 C 23.617188 218.96875 23.550781 221.285156 23.550781 223.574219 C 23.550781 239.78125 26.726562 255.507812 32.992188 270.316406 C 39.039062 284.613281 47.695312 297.457031 58.722656 308.480469 C 69.746094 319.503906 82.585938 328.164062 96.886719 334.210938 C 111.695312 340.472656 127.421875 343.648438 143.628906 343.648438 C 159.835938 343.648438 175.5625 340.472656 190.371094 334.210938 C 204.667969 328.160156 217.507812 319.503906 228.535156 308.480469 C 239.558594 297.457031 248.214844 284.613281 254.265625 270.316406 C 260.527344 255.507812 263.703125 239.78125 263.703125 223.574219 C 263.703125 200.921875 257.363281 178.859375 245.367188 159.765625 C 242.957031 155.933594 237.898438 154.777344 234.0625 157.1875 Z M 234.0625 157.1875 " fill-opacity="1" fill-rule="nonzero"/></g><path fill="#ffffff" d="M 350.480469 80.785156 C 349.527344 77.855469 347.011719 75.703125 343.964844 75.222656 L 302.730469 68.703125 C 302.332031 67.785156 301.757812 66.925781 301.007812 66.175781 C 300.257812 65.425781 299.398438 64.855469 298.480469 64.457031 L 291.960938 23.21875 C 291.480469 20.171875 289.332031 17.65625 286.398438 16.703125 C 283.46875 15.75 280.25 16.523438 278.070312 18.703125 L 225.746094 71.027344 C 223.890625 72.882812 223.035156 75.511719 223.445312 78.101562 L 230.820312 124.769531 L 141.027344 214.5625 C 137.828125 217.765625 137.828125 222.953125 141.027344 226.152344 C 142.628906 227.753906 144.726562 228.554688 146.824219 228.554688 C 148.921875 228.554688 151.019531 227.753906 152.617188 226.152344 L 242.414062 136.359375 L 289.082031 143.738281 C 289.507812 143.804688 289.933594 143.835938 290.359375 143.835938 C 292.515625 143.835938 294.605469 142.984375 296.15625 141.4375 L 348.480469 89.113281 C 350.660156 86.933594 351.433594 83.714844 350.480469 80.785156 Z M 278.285156 41.671875 L 283.148438 72.445312 L 245.152344 110.441406 L 240.289062 79.667969 Z M 287.519531 126.898438 L 256.742188 122.03125 L 294.738281 84.039062 L 325.511719 88.902344 Z M 287.519531 126.898438 " fill-opacity="1" fill-rule="nonzero"/><path fill="#ffffff" d="M 143.628906 201.8125 C 144.636719 201.8125 145.648438 201.882812 146.640625 202.019531 C 151.125 202.636719 155.257812 199.5 155.875 195.019531 C 156.496094 190.535156 153.359375 186.398438 148.875 185.78125 C 147.148438 185.542969 145.382812 185.421875 143.628906 185.421875 C 122.589844 185.421875 105.476562 202.535156 105.476562 223.574219 C 105.476562 244.613281 122.589844 261.726562 143.628906 261.726562 C 164.664062 261.726562 181.78125 244.613281 181.78125 223.574219 C 181.78125 221.855469 181.664062 220.125 181.4375 218.429688 C 180.832031 213.945312 176.703125 210.800781 172.21875 211.40625 C 167.734375 212.011719 164.585938 216.136719 165.191406 220.625 C 165.324219 221.59375 165.390625 222.585938 165.390625 223.574219 C 165.390625 235.574219 155.628906 245.335938 143.628906 245.335938 C 131.628906 245.335938 121.867188 235.574219 121.867188 223.574219 C 121.867188 211.574219 131.628906 201.8125 143.628906 201.8125 Z M 143.628906 201.8125 " fill-opacity="1" fill-rule="nonzero"/></svg>