<svg xmlns="http://www.w3.org/2000/svg" xmlns:xlink="http://www.w3.org/1999/xlink" width="500" zoomAndPan="magnify" viewBox="0 0 375 374.999991" height="500" preserveAspectRatio="xMidYMid meet" version="1.0"><defs><clipPath id="9287b06f33"><path d="M 28.828125 207 L 140 207 L 140 247 L 28.828125 247 Z M 28.828125 207 " clip-rule="nonzero"/></clipPath><clipPath id="4d8f7d31bc"><path d="M 28.828125 172 L 140 172 L 140 214 L 28.828125 214 Z M 28.828125 172 " clip-rule="nonzero"/></clipPath><clipPath id="7f9dd8377b"><path d="M 28.828125 125 L 140 125 L 140 175 L 28.828125 175 Z M 28.828125 125 " clip-rule="nonzero"/></clipPath><clipPath id="35d0e09701"><path d="M 153 238 L 346.078125 238 L 346.078125 293.636719 L 153 293.636719 Z M 153 238 " clip-rule="nonzero"/></clipPath><clipPath id="4a7a2236f0"><path d="M 153 193 L 346.078125 193 L 346.078125 245 L 153 245 Z M 153 193 " clip-rule="nonzero"/></clipPath><clipPath id="fc3c7f4af4"><path d="M 153 141 L 346.078125 141 L 346.078125 199 L 153 199 Z M 153 141 " clip-rule="nonzero"/></clipPath><clipPath id="d48e1e9976"><path d="M 153 81.386719 L 346.078125 81.386719 L 346.078125 151 L 153 151 Z M 153 81.386719 " clip-rule="nonzero"/></clipPath></defs><g clip-path="url(#9287b06f33)"><path fill="#ffffff" d="M 81.433594 220.042969 C 81.875 220.753906 82.140625 221.582031 82.140625 222.484375 L 82.140625 234.90625 C 82.140625 237.480469 80.054688 239.566406 77.480469 239.566406 C 74.90625 239.566406 72.820312 237.480469 72.820312 234.90625 L 72.820312 222.484375 C 72.820312 221.222656 73.324219 220.082031 74.136719 219.242188 C 70.03125 218.71875 66.15625 218.074219 62.445312 217.363281 C 62.589844 217.8125 62.6875 218.285156 62.6875 218.78125 L 62.6875 231.203125 C 62.6875 233.78125 60.601562 235.867188 58.023438 235.867188 C 55.453125 235.867188 53.367188 233.78125 53.367188 231.203125 L 53.367188 218.78125 C 53.367188 217.582031 53.828125 216.503906 54.570312 215.675781 C 50.222656 214.640625 46.222656 213.53125 42.589844 212.386719 C 42.597656 212.488281 42.621094 212.582031 42.621094 212.6875 L 42.621094 225.113281 C 42.621094 227.6875 40.53125 229.777344 37.957031 229.777344 C 35.386719 229.777344 33.300781 227.6875 33.300781 225.113281 L 33.300781 212.6875 C 33.300781 211.503906 33.753906 210.4375 34.480469 209.613281 C 32.429688 208.847656 30.570312 208.109375 28.886719 207.398438 L 28.886719 222.550781 C 28.886719 232.457031 56.265625 246.851562 99.167969 246.851562 C 114.984375 246.851562 128.667969 244.882812 139.671875 241.917969 L 139.671875 216.402344 C 127.984375 218.9375 114.148438 220.800781 98.605469 220.800781 C 92.601562 220.800781 86.875 220.523438 81.433594 220.042969 " fill-opacity="1" fill-rule="nonzero"/></g><g clip-path="url(#4d8f7d31bc)"><path fill="#ffffff" d="M 82.140625 187.894531 L 82.140625 200.242188 C 82.140625 202.816406 80.054688 204.902344 77.480469 204.902344 C 74.90625 204.902344 72.820312 202.816406 72.820312 200.242188 L 72.820312 187.820312 C 72.820312 187.476562 72.863281 187.144531 72.933594 186.828125 C 69.449219 186.332031 66.027344 185.730469 62.6875 185.039062 L 62.6875 196.539062 C 62.6875 199.117188 60.601562 201.203125 58.023438 201.203125 C 55.453125 201.203125 53.367188 199.117188 53.367188 196.539062 L 53.367188 184.113281 C 53.367188 183.667969 53.449219 183.246094 53.566406 182.835938 C 49.730469 181.769531 46.066406 180.5625 42.621094 179.207031 L 42.621094 190.449219 C 42.621094 193.023438 40.53125 195.109375 37.957031 195.109375 C 35.386719 195.109375 33.300781 193.023438 33.300781 190.449219 L 33.300781 178.023438 C 33.300781 177.027344 33.621094 176.105469 34.148438 175.351562 C 32.289062 174.363281 30.527344 173.324219 28.886719 172.234375 L 28.886719 198.667969 C 37.789062 202.964844 63.128906 213.464844 98.605469 213.464844 C 114.371094 213.464844 128.265625 211.382812 139.671875 208.699219 L 139.671875 184.132812 C 127.046875 187.125 112.96875 188.675781 99.167969 188.675781 C 93.496094 188.675781 87.78125 188.40625 82.140625 187.894531 " fill-opacity="1" fill-rule="nonzero"/></g><g clip-path="url(#7f9dd8377b)"><path fill="#ffffff" d="M 135.65625 129.691406 C 134.925781 129.519531 134.191406 129.351562 133.441406 129.191406 C 132.199219 128.921875 130.921875 128.675781 129.625 128.433594 C 129.019531 128.320312 128.429688 128.203125 127.8125 128.09375 C 125.894531 127.761719 123.925781 127.464844 121.898438 127.199219 C 121.40625 127.132812 120.890625 127.082031 120.390625 127.019531 C 118.777344 126.824219 117.136719 126.648438 115.457031 126.496094 C 114.730469 126.429688 114 126.371094 113.261719 126.316406 C 111.679688 126.191406 110.066406 126.089844 108.429688 126.011719 C 107.722656 125.976562 107.023438 125.933594 106.304688 125.90625 C 103.972656 125.820312 101.601562 125.757812 99.167969 125.757812 C 96.726562 125.757812 94.359375 125.820312 92.023438 125.90625 C 91.304688 125.933594 90.609375 125.976562 89.902344 126.011719 C 88.265625 126.089844 86.652344 126.191406 85.070312 126.316406 C 84.332031 126.371094 83.597656 126.429688 82.871094 126.496094 C 81.195312 126.648438 79.550781 126.824219 77.9375 127.019531 C 77.4375 127.082031 76.921875 127.132812 76.429688 127.199219 C 74.402344 127.464844 72.433594 127.761719 70.515625 128.09375 C 69.902344 128.203125 69.3125 128.320312 68.707031 128.433594 C 67.410156 128.675781 66.128906 128.921875 64.890625 129.191406 C 64.136719 129.351562 63.40625 129.519531 62.671875 129.691406 C 61.621094 129.9375 60.601562 130.191406 59.59375 130.457031 C 58.855469 130.648438 58.113281 130.835938 57.402344 131.035156 C 56.371094 131.328125 55.386719 131.632812 54.40625 131.941406 C 53.117188 132.347656 51.875 132.765625 50.671875 133.195312 C 50.070312 133.410156 49.453125 133.628906 48.871094 133.851562 C 48.007812 134.183594 47.1875 134.519531 46.371094 134.863281 C 45.953125 135.042969 45.53125 135.222656 45.117188 135.40625 C 44.261719 135.785156 43.429688 136.167969 42.632812 136.558594 C 42.449219 136.648438 42.28125 136.742188 42.105469 136.828125 C 39.265625 138.265625 36.859375 139.757812 34.90625 141.265625 C 34.886719 141.28125 34.871094 141.292969 34.851562 141.308594 C 34.171875 141.832031 33.558594 142.355469 32.992188 142.882812 C 30.347656 145.355469 28.886719 147.816406 28.886719 150.046875 C 28.886719 152.28125 30.347656 154.742188 32.988281 157.207031 L 32.988281 157.210938 C 33.554688 157.742188 34.171875 158.265625 34.851562 158.792969 C 34.863281 158.804688 34.878906 158.8125 34.890625 158.824219 C 36.847656 160.335938 39.257812 161.832031 42.105469 163.269531 C 42.28125 163.359375 42.449219 163.449219 42.628906 163.539062 C 43.425781 163.933594 44.261719 164.316406 45.121094 164.699219 C 45.527344 164.875 45.945312 165.058594 46.367188 165.230469 C 47.179688 165.582031 48.003906 165.917969 48.871094 166.253906 C 49.445312 166.472656 50.058594 166.683594 50.664062 166.902344 C 51.875 167.335938 53.125 167.761719 54.433594 168.167969 C 55.402344 168.476562 56.375 168.78125 57.394531 169.066406 C 58.109375 169.265625 58.855469 169.457031 59.59375 169.652344 C 60.601562 169.910156 61.621094 170.167969 62.671875 170.414062 C 63.402344 170.585938 64.136719 170.75 64.890625 170.910156 C 66.132812 171.179688 67.410156 171.429688 68.707031 171.671875 C 69.316406 171.78125 69.898438 171.90625 70.515625 172.007812 C 72.429688 172.339844 74.402344 172.640625 76.429688 172.910156 C 76.925781 172.972656 77.441406 173.023438 77.9375 173.082031 C 79.550781 173.277344 81.195312 173.457031 82.871094 173.609375 C 83.59375 173.675781 84.328125 173.730469 85.0625 173.789062 C 86.648438 173.914062 88.261719 174.011719 89.898438 174.097656 C 90.605469 174.132812 91.304688 174.171875 92.027344 174.203125 C 94.363281 174.289062 96.726562 174.351562 99.167969 174.351562 C 101.597656 174.351562 103.96875 174.289062 106.304688 174.203125 C 107.019531 174.171875 107.722656 174.132812 108.433594 174.097656 C 110.070312 174.011719 111.683594 173.914062 113.265625 173.789062 C 114.003906 173.730469 114.734375 173.675781 115.457031 173.609375 C 117.136719 173.457031 118.777344 173.277344 120.390625 173.082031 C 120.890625 173.023438 121.40625 172.972656 121.898438 172.910156 C 123.925781 172.640625 125.898438 172.339844 127.8125 172.007812 C 128.429688 171.90625 129.019531 171.78125 129.625 171.671875 C 130.921875 171.429688 132.195312 171.179688 133.441406 170.910156 C 134.191406 170.75 134.929688 170.585938 135.660156 170.414062 C 136.707031 170.167969 137.730469 169.910156 138.738281 169.652344 C 139.050781 169.566406 139.355469 169.484375 139.671875 169.402344 L 139.671875 130.699219 C 139.355469 130.621094 139.050781 130.535156 138.738281 130.457031 C 137.730469 130.191406 136.707031 129.9375 135.65625 129.691406 " fill-opacity="1" fill-rule="nonzero"/></g><g clip-path="url(#35d0e09701)"><path fill="#ffffff" d="M 213.476562 278.394531 C 213.476562 281.226562 211.179688 283.523438 208.347656 283.523438 C 205.515625 283.523438 203.21875 281.226562 203.21875 278.394531 L 203.21875 263.339844 C 203.21875 260.503906 205.515625 258.207031 208.347656 258.207031 C 211.179688 258.207031 213.476562 260.503906 213.476562 263.339844 Z M 194.027344 273.90625 C 194.027344 276.738281 191.730469 279.035156 188.894531 279.035156 C 186.0625 279.035156 183.765625 276.738281 183.765625 273.90625 L 183.765625 258.847656 C 183.765625 256.015625 186.0625 253.71875 188.894531 253.71875 C 191.730469 253.71875 194.027344 256.015625 194.027344 258.847656 Z M 173.953125 266.53125 C 173.953125 269.363281 171.660156 271.664062 168.824219 271.664062 C 165.992188 271.664062 163.695312 269.363281 163.695312 266.53125 L 163.695312 251.472656 C 163.695312 248.640625 165.992188 246.34375 168.824219 246.34375 C 171.660156 246.34375 173.953125 248.640625 173.953125 251.472656 Z M 153.996094 238.871094 L 153.996094 258.875 C 153.996094 275.328125 193.46875 293.667969 250.113281 293.667969 C 306.738281 293.667969 346.199219 275.328125 346.199219 258.875 L 346.199219 238.707031 C 329.65625 245.886719 295.015625 257.984375 249.363281 257.984375 C 203.824219 257.984375 170.21875 246.09375 153.996094 238.871094 " fill-opacity="1" fill-rule="nonzero"/></g><g clip-path="url(#4a7a2236f0)"><path fill="#ffffff" d="M 213.476562 233.417969 C 213.476562 236.25 211.179688 238.546875 208.347656 238.546875 C 205.515625 238.546875 203.21875 236.25 203.21875 233.417969 L 203.21875 218.355469 C 203.21875 215.523438 205.515625 213.226562 208.347656 213.226562 C 211.179688 213.226562 213.476562 215.523438 213.476562 218.355469 Z M 194.027344 228.929688 C 194.027344 231.757812 191.730469 234.058594 188.894531 234.058594 C 186.0625 234.058594 183.765625 231.757812 183.765625 228.929688 L 183.765625 213.867188 C 183.765625 211.035156 186.0625 208.738281 188.894531 208.738281 C 191.730469 208.738281 194.027344 211.035156 194.027344 213.867188 Z M 173.953125 221.550781 C 173.953125 224.386719 171.660156 226.683594 168.824219 226.683594 C 165.992188 226.683594 163.695312 224.386719 163.695312 221.550781 L 163.695312 206.496094 C 163.695312 203.660156 165.992188 201.363281 168.824219 201.363281 C 171.660156 201.363281 173.953125 203.660156 173.953125 206.496094 Z M 153.996094 193.222656 L 153.996094 224.292969 C 164.785156 229.671875 199.785156 244.949219 249.363281 244.949219 C 298.9375 244.949219 335.046875 229.609375 346.199219 224.222656 L 346.199219 193.0625 C 329.65625 200.242188 295.015625 212.335938 249.363281 212.335938 C 203.824219 212.335938 170.21875 200.449219 153.996094 193.222656 " fill-opacity="1" fill-rule="nonzero"/></g><g clip-path="url(#fc3c7f4af4)"><path fill="#ffffff" d="M 213.476562 186.816406 C 213.476562 189.648438 211.179688 191.945312 208.347656 191.945312 C 205.515625 191.945312 203.21875 189.648438 203.21875 186.816406 L 203.21875 171.757812 C 203.21875 168.925781 205.515625 166.625 208.347656 166.625 C 211.179688 166.625 213.476562 168.925781 213.476562 171.757812 Z M 194.027344 182.324219 C 194.027344 185.15625 191.730469 187.457031 188.894531 187.457031 C 186.0625 187.457031 183.765625 185.15625 183.765625 182.324219 L 183.765625 167.265625 C 183.765625 164.433594 186.0625 162.136719 188.894531 162.136719 C 191.730469 162.136719 194.027344 164.433594 194.027344 167.265625 Z M 173.953125 174.949219 C 173.953125 177.785156 171.660156 180.082031 168.824219 180.082031 C 165.992188 180.082031 163.695312 177.785156 163.695312 174.949219 L 163.695312 159.894531 C 163.695312 157.058594 165.992188 154.761719 168.824219 154.761719 C 171.660156 154.761719 173.953125 157.058594 173.953125 159.894531 Z M 153.996094 141.078125 L 153.996094 177.355469 C 164.785156 182.734375 199.785156 198.011719 249.363281 198.011719 C 298.9375 198.011719 335.046875 182.671875 346.199219 177.285156 L 346.199219 141.082031 C 327.558594 155.78125 292.332031 165.292969 250.113281 165.292969 C 207.878906 165.292969 172.636719 155.78125 153.996094 141.078125 " fill-opacity="1" fill-rule="nonzero"/></g><path fill="#ffffff" d="M 280.875 123.195312 C 282.140625 122.164062 282.59375 121.390625 282.75 120.917969 C 282.945312 120.320312 282.960938 119.800781 282.785156 119.394531 C 282.578125 118.851562 282.332031 118.453125 282.039062 118.160156 L 282.039062 118.152344 C 279.699219 115.792969 276.835938 114.28125 273.523438 113.65625 C 270.707031 113.109375 267.3125 113.046875 263.433594 113.46875 L 276.324219 125.738281 C 278.34375 124.867188 279.875 124.015625 280.875 123.195312 " fill-opacity="1" fill-rule="nonzero"/><g clip-path="url(#d48e1e9976)"><path fill="#ffffff" d="M 214.882812 101.042969 C 216.027344 99.265625 217.847656 97.503906 220.304688 95.824219 C 222.265625 94.453125 224.613281 93.195312 227.285156 92.082031 L 224.964844 89.847656 C 223.582031 88.566406 223.800781 87.222656 224.46875 86.386719 C 225.074219 85.648438 225.960938 85.113281 227.183594 84.730469 C 228.191406 84.417969 229.34375 84.292969 230.703125 84.339844 C 232.136719 84.390625 233.367188 84.867188 234.273438 85.707031 L 237.808594 89.085938 C 243.632812 87.917969 249.21875 87.714844 254.410156 88.496094 C 259.953125 89.289062 264.523438 91.289062 268 94.429688 L 268.25 94.734375 C 268.871094 95.8125 268.757812 96.667969 268.554688 97.195312 C 268.214844 98.089844 267.390625 98.734375 266.050781 99.171875 C 263.796875 99.90625 261.851562 99.679688 260.28125 98.484375 C 259.386719 97.820312 258.3125 97.175781 257.09375 96.582031 C 255.8125 95.953125 254.339844 95.441406 252.710938 95.058594 C 251.011719 94.660156 249.144531 94.40625 247.160156 94.300781 C 245.945312 94.230469 244.675781 94.253906 243.363281 94.355469 L 257.78125 108.082031 C 262.644531 107.230469 266.691406 106.851562 270.132812 106.945312 C 273.789062 107.042969 276.945312 107.449219 279.515625 108.152344 C 282.179688 108.863281 284.386719 109.835938 286.066406 111.042969 C 287.753906 112.234375 289.117188 113.378906 290.222656 114.535156 C 292.460938 117.0625 292.828125 120.109375 291.304688 123.371094 C 290.546875 124.921875 289.171875 126.328125 287.09375 127.710938 C 285.589844 128.730469 283.742188 129.699219 281.492188 130.644531 L 284.136719 133.15625 C 285.542969 134.503906 285.226562 135.875 284.464844 136.714844 C 283.824219 137.425781 282.914062 137.96875 281.777344 138.324219 C 280.886719 138.59375 279.984375 138.730469 279.027344 138.730469 C 278.765625 138.730469 278.503906 138.71875 278.238281 138.699219 C 276.835938 138.59375 275.683594 138.121094 274.8125 137.28125 L 271.320312 133.960938 C 268.003906 134.824219 264.578125 135.492188 261.125 135.953125 C 257.683594 136.402344 254.261719 136.582031 250.910156 136.496094 C 247.613281 136.402344 244.625 135.992188 241.757812 135.253906 C 238.964844 134.558594 236.425781 133.484375 234.21875 132.066406 C 232.101562 130.988281 232.429688 129.652344 232.671875 129.117188 C 233 128.296875 233.953125 127.699219 235.753906 127.25 C 238.371094 126.574219 240.34375 126.628906 241.652344 127.738281 C 244.0625 129.046875 247.695312 129.953125 252.242188 130.304688 C 256.285156 130.59375 260.933594 130.132812 266.0625 128.941406 L 252.144531 115.714844 C 244.789062 117.445312 238.113281 118.046875 232.304688 117.496094 C 226.21875 116.9375 221.136719 115.210938 217.203125 112.367188 C 215.09375 110.742188 213.867188 108.929688 213.519531 106.957031 C 213.144531 105 213.605469 103.003906 214.882812 101.042969 Z M 168.09375 133.597656 C 168.148438 133.628906 168.207031 133.664062 168.261719 133.695312 C 172.25 136.074219 177.011719 138.320312 182.460938 140.359375 C 182.632812 140.425781 182.800781 140.488281 182.976562 140.550781 C 184.703125 141.1875 186.503906 141.808594 188.367188 142.402344 C 188.554688 142.460938 188.746094 142.519531 188.933594 142.578125 C 192.734375 143.769531 196.800781 144.867188 201.109375 145.84375 C 201.382812 145.902344 201.648438 145.96875 201.921875 146.027344 C 203.980469 146.484375 206.097656 146.914062 208.265625 147.316406 C 208.632812 147.382812 209.003906 147.449219 209.378906 147.515625 C 211.574219 147.90625 213.8125 148.277344 216.105469 148.609375 C 216.355469 148.644531 216.609375 148.675781 216.855469 148.710938 C 219.101562 149.027344 221.390625 149.316406 223.722656 149.570312 C 223.976562 149.59375 224.222656 149.625 224.476562 149.652344 C 226.863281 149.902344 229.300781 150.113281 231.78125 150.292969 C 232.25 150.328125 232.722656 150.363281 233.195312 150.394531 C 235.652344 150.5625 238.144531 150.695312 240.6875 150.789062 C 241.113281 150.804688 241.550781 150.8125 241.984375 150.828125 C 244.65625 150.910156 247.355469 150.964844 250.113281 150.964844 C 252.867188 150.964844 255.574219 150.910156 258.242188 150.828125 C 258.671875 150.8125 259.109375 150.804688 259.539062 150.789062 C 262.074219 150.695312 264.570312 150.5625 267.027344 150.394531 C 267.5 150.363281 267.96875 150.328125 268.441406 150.292969 C 270.914062 150.113281 273.355469 149.902344 275.742188 149.652344 C 275.996094 149.625 276.238281 149.59375 276.488281 149.570312 C 278.824219 149.316406 281.113281 149.027344 283.359375 148.710938 C 283.605469 148.675781 283.859375 148.644531 284.105469 148.609375 C 286.402344 148.277344 288.640625 147.90625 290.835938 147.515625 C 291.207031 147.449219 291.582031 147.382812 291.945312 147.316406 C 294.113281 146.914062 296.230469 146.484375 298.289062 146.027344 C 298.5625 145.96875 298.828125 145.902344 299.101562 145.84375 C 303.40625 144.867188 307.46875 143.769531 311.269531 142.578125 C 311.460938 142.519531 311.652344 142.460938 311.839844 142.402344 C 313.703125 141.808594 315.5 141.1875 317.230469 140.550781 C 317.402344 140.488281 317.570312 140.425781 317.742188 140.359375 C 323.1875 138.320312 327.949219 136.074219 331.9375 133.695312 C 331.996094 133.664062 332.050781 133.628906 332.105469 133.597656 C 337.5 130.351562 341.464844 126.871094 343.785156 123.339844 C 345.359375 120.953125 346.199219 118.546875 346.199219 116.175781 C 346.199219 113.808594 345.355469 111.398438 343.78125 109.015625 C 341.460938 105.488281 337.496094 102.003906 332.097656 98.769531 C 332.042969 98.734375 331.988281 98.703125 331.933594 98.667969 C 327.945312 96.292969 323.1875 94.046875 317.742188 92.011719 C 317.570312 91.945312 317.394531 91.882812 317.21875 91.816406 C 315.492188 91.179688 313.699219 90.5625 311.835938 89.96875 C 311.644531 89.910156 311.453125 89.851562 311.261719 89.792969 C 307.464844 88.601562 303.402344 87.507812 299.089844 86.53125 C 298.820312 86.46875 298.558594 86.40625 298.285156 86.347656 C 296.230469 85.890625 294.113281 85.464844 291.949219 85.0625 C 291.578125 84.996094 291.203125 84.929688 290.824219 84.863281 C 288.632812 84.46875 286.394531 84.097656 284.101562 83.769531 C 283.855469 83.734375 283.605469 83.703125 283.359375 83.667969 C 281.109375 83.351562 278.8125 83.0625 276.472656 82.808594 C 276.230469 82.78125 275.988281 82.753906 275.746094 82.726562 C 273.355469 82.480469 270.914062 82.265625 268.4375 82.085938 C 267.964844 82.050781 267.5 82.015625 267.027344 81.984375 C 264.570312 81.820312 262.074219 81.6875 259.539062 81.59375 C 259.105469 81.578125 258.671875 81.566406 258.238281 81.554688 C 255.570312 81.472656 252.867188 81.414062 250.113281 81.414062 C 247.359375 81.414062 244.65625 81.472656 241.984375 81.554688 C 241.554688 81.566406 241.113281 81.578125 240.6875 81.59375 C 238.144531 81.6875 235.652344 81.820312 233.195312 81.984375 C 232.722656 82.015625 232.253906 82.050781 231.785156 82.085938 C 229.300781 82.265625 226.859375 82.480469 224.472656 82.726562 C 224.226562 82.753906 223.988281 82.78125 223.746094 82.808594 C 221.402344 83.0625 219.105469 83.351562 216.855469 83.667969 C 216.609375 83.703125 216.359375 83.734375 216.113281 83.769531 C 213.816406 84.097656 211.582031 84.46875 209.386719 84.863281 C 209.007812 84.929688 208.636719 84.996094 208.261719 85.0625 C 206.097656 85.464844 203.984375 85.890625 201.925781 86.347656 C 201.652344 86.40625 201.386719 86.46875 201.121094 86.53125 C 196.808594 87.507812 192.742188 88.601562 188.941406 89.792969 C 188.753906 89.851562 188.558594 89.910156 188.371094 89.96875 C 186.507812 90.5625 184.714844 91.179688 182.988281 91.816406 C 182.808594 91.882812 182.632812 91.945312 182.460938 92.011719 C 177.015625 94.046875 172.253906 96.292969 168.269531 98.667969 C 168.207031 98.703125 168.15625 98.734375 168.101562 98.769531 C 159.050781 104.199219 153.996094 110.304688 153.996094 116.175781 C 153.996094 122.050781 159.046875 128.160156 168.09375 133.597656 " fill-opacity="1" fill-rule="nonzero"/></g><path fill="#ffffff" d="M 225.464844 108.183594 C 226.210938 108.726562 227.179688 109.265625 228.429688 109.839844 C 229.65625 110.363281 231.175781 110.753906 232.910156 110.992188 C 234.773438 111.257812 236.964844 111.339844 239.621094 111.246094 C 241.683594 111.144531 244.023438 110.875 246.582031 110.433594 L 232.417969 96.953125 C 230.222656 97.777344 228.421875 98.65625 227.0625 99.582031 C 225.613281 100.550781 224.570312 101.5625 223.964844 102.59375 C 223.453125 103.5625 223.296875 104.496094 223.515625 105.410156 C 223.746094 106.382812 224.398438 107.316406 225.464844 108.183594 " fill-opacity="1" fill-rule="nonzero"/></svg>